<mxfile host="app.diagrams.net" modified="2024-07-21T14:24:30.600Z" agent="Mozilla/5.0 (Windows NT 10.0; Win64; x64) AppleWebKit/537.36 (KHTML, like Gecko) Chrome/126.0.0.0 Safari/537.36" etag="LBYhjGtcCsz_hqCnSoaZ" version="24.7.2" type="github">
  <diagram name="Page-1" id="jXeIIhK6Zi2_pmtL2Xjh">
    <mxGraphModel dx="1504" dy="848" grid="1" gridSize="10" guides="1" tooltips="1" connect="1" arrows="1" fold="1" page="1" pageScale="1" pageWidth="827" pageHeight="1169" math="0" shadow="0">
      <root>
        <mxCell id="0" />
        <mxCell id="1" parent="0" />
        <mxCell id="BAq6Ku5tGrZ1LdkmCnmw-3" value="" style="edgeStyle=orthogonalEdgeStyle;rounded=0;orthogonalLoop=1;jettySize=auto;html=1;exitX=0.5;exitY=1;exitDx=0;exitDy=0;" edge="1" parent="1" source="BAq6Ku5tGrZ1LdkmCnmw-1" target="BAq6Ku5tGrZ1LdkmCnmw-2">
          <mxGeometry relative="1" as="geometry" />
        </mxCell>
        <mxCell id="BAq6Ku5tGrZ1LdkmCnmw-5" value="" style="edgeStyle=orthogonalEdgeStyle;rounded=0;orthogonalLoop=1;jettySize=auto;html=1;" edge="1" parent="1" source="BAq6Ku5tGrZ1LdkmCnmw-1" target="BAq6Ku5tGrZ1LdkmCnmw-4">
          <mxGeometry relative="1" as="geometry" />
        </mxCell>
        <mxCell id="BAq6Ku5tGrZ1LdkmCnmw-7" value="" style="edgeStyle=orthogonalEdgeStyle;rounded=0;orthogonalLoop=1;jettySize=auto;html=1;" edge="1" parent="1" source="BAq6Ku5tGrZ1LdkmCnmw-1" target="BAq6Ku5tGrZ1LdkmCnmw-6">
          <mxGeometry relative="1" as="geometry" />
        </mxCell>
        <mxCell id="BAq6Ku5tGrZ1LdkmCnmw-13" value="" style="edgeStyle=orthogonalEdgeStyle;rounded=0;orthogonalLoop=1;jettySize=auto;html=1;" edge="1" parent="1" source="BAq6Ku5tGrZ1LdkmCnmw-1" target="BAq6Ku5tGrZ1LdkmCnmw-12">
          <mxGeometry relative="1" as="geometry" />
        </mxCell>
        <mxCell id="BAq6Ku5tGrZ1LdkmCnmw-20" style="edgeStyle=orthogonalEdgeStyle;rounded=0;orthogonalLoop=1;jettySize=auto;html=1;exitX=1;exitY=0.5;exitDx=0;exitDy=0;entryX=0;entryY=0.5;entryDx=0;entryDy=0;" edge="1" parent="1" source="BAq6Ku5tGrZ1LdkmCnmw-1" target="BAq6Ku5tGrZ1LdkmCnmw-18">
          <mxGeometry relative="1" as="geometry" />
        </mxCell>
        <mxCell id="BAq6Ku5tGrZ1LdkmCnmw-22" style="edgeStyle=orthogonalEdgeStyle;rounded=0;orthogonalLoop=1;jettySize=auto;html=1;exitX=0;exitY=0;exitDx=0;exitDy=0;entryX=1;entryY=0.5;entryDx=0;entryDy=0;" edge="1" parent="1" source="BAq6Ku5tGrZ1LdkmCnmw-1" target="BAq6Ku5tGrZ1LdkmCnmw-21">
          <mxGeometry relative="1" as="geometry" />
        </mxCell>
        <mxCell id="BAq6Ku5tGrZ1LdkmCnmw-30" style="edgeStyle=orthogonalEdgeStyle;rounded=0;orthogonalLoop=1;jettySize=auto;html=1;exitX=1;exitY=1;exitDx=0;exitDy=0;" edge="1" parent="1" source="BAq6Ku5tGrZ1LdkmCnmw-1" target="BAq6Ku5tGrZ1LdkmCnmw-29">
          <mxGeometry relative="1" as="geometry" />
        </mxCell>
        <mxCell id="BAq6Ku5tGrZ1LdkmCnmw-1" value="Atalas of tumour vasculature" style="ellipse;whiteSpace=wrap;html=1;aspect=fixed;fillColor=#f8cecc;strokeColor=#b85450;fontSize=15;" vertex="1" parent="1">
          <mxGeometry x="350" y="540" width="120" height="120" as="geometry" />
        </mxCell>
        <mxCell id="BAq6Ku5tGrZ1LdkmCnmw-61" value="" style="edgeStyle=orthogonalEdgeStyle;rounded=0;orthogonalLoop=1;jettySize=auto;html=1;" edge="1" parent="1" source="BAq6Ku5tGrZ1LdkmCnmw-2" target="BAq6Ku5tGrZ1LdkmCnmw-60">
          <mxGeometry relative="1" as="geometry" />
        </mxCell>
        <mxCell id="BAq6Ku5tGrZ1LdkmCnmw-63" style="edgeStyle=orthogonalEdgeStyle;rounded=0;orthogonalLoop=1;jettySize=auto;html=1;exitX=0.5;exitY=1;exitDx=0;exitDy=0;entryX=0.5;entryY=0;entryDx=0;entryDy=0;" edge="1" parent="1" source="BAq6Ku5tGrZ1LdkmCnmw-2" target="BAq6Ku5tGrZ1LdkmCnmw-62">
          <mxGeometry relative="1" as="geometry" />
        </mxCell>
        <mxCell id="BAq6Ku5tGrZ1LdkmCnmw-65" style="edgeStyle=orthogonalEdgeStyle;rounded=0;orthogonalLoop=1;jettySize=auto;html=1;exitX=0.5;exitY=1;exitDx=0;exitDy=0;" edge="1" parent="1" source="BAq6Ku5tGrZ1LdkmCnmw-2" target="BAq6Ku5tGrZ1LdkmCnmw-64">
          <mxGeometry relative="1" as="geometry" />
        </mxCell>
        <mxCell id="BAq6Ku5tGrZ1LdkmCnmw-2" value="Tumour angiogenesis sprouting from VenECs" style="whiteSpace=wrap;html=1;fillColor=#d5e8d4;strokeColor=#82b366;fontSize=14;" vertex="1" parent="1">
          <mxGeometry x="620" y="740" width="140" height="80" as="geometry" />
        </mxCell>
        <mxCell id="BAq6Ku5tGrZ1LdkmCnmw-9" value="" style="edgeStyle=orthogonalEdgeStyle;rounded=0;orthogonalLoop=1;jettySize=auto;html=1;" edge="1" parent="1" source="BAq6Ku5tGrZ1LdkmCnmw-4" target="BAq6Ku5tGrZ1LdkmCnmw-8">
          <mxGeometry relative="1" as="geometry" />
        </mxCell>
        <mxCell id="BAq6Ku5tGrZ1LdkmCnmw-11" value="" style="edgeStyle=orthogonalEdgeStyle;rounded=0;orthogonalLoop=1;jettySize=auto;html=1;exitX=0.5;exitY=0;exitDx=0;exitDy=0;" edge="1" parent="1" source="BAq6Ku5tGrZ1LdkmCnmw-4" target="BAq6Ku5tGrZ1LdkmCnmw-10">
          <mxGeometry relative="1" as="geometry">
            <mxPoint x="400" y="400" as="sourcePoint" />
          </mxGeometry>
        </mxCell>
        <mxCell id="BAq6Ku5tGrZ1LdkmCnmw-4" value="APLN+ TipSI-&amp;gt;TipSIII Nothch signalling increased" style="whiteSpace=wrap;html=1;fillColor=#d5e8d4;strokeColor=#82b366;fontSize=14;" vertex="1" parent="1">
          <mxGeometry x="330" y="430" width="170" height="60" as="geometry" />
        </mxCell>
        <mxCell id="BAq6Ku5tGrZ1LdkmCnmw-6" value="tip -&amp;gt;stalk cells, high chemokine expr, TEK (Tie2)" style="whiteSpace=wrap;html=1;fillColor=#d5e8d4;strokeColor=#82b366;fontSize=14;" vertex="1" parent="1">
          <mxGeometry x="190" y="740" width="180" height="60" as="geometry" />
        </mxCell>
        <mxCell id="BAq6Ku5tGrZ1LdkmCnmw-8" value="Poor prognosis" style="shape=hexagon;perimeter=hexagonPerimeter2;whiteSpace=wrap;html=1;fixedSize=1;fillColor=#d5e8d4;strokeColor=#82b366;" vertex="1" parent="1">
          <mxGeometry x="330" y="280" width="120" height="80" as="geometry" />
        </mxCell>
        <mxCell id="BAq6Ku5tGrZ1LdkmCnmw-10" value="anti-VEGF therapy" style="shape=hexagon;perimeter=hexagonPerimeter2;whiteSpace=wrap;html=1;fixedSize=1;fillColor=#d5e8d4;strokeColor=#82b366;" vertex="1" parent="1">
          <mxGeometry x="480" y="280" width="120" height="80" as="geometry" />
        </mxCell>
        <mxCell id="BAq6Ku5tGrZ1LdkmCnmw-15" value="" style="edgeStyle=orthogonalEdgeStyle;rounded=0;orthogonalLoop=1;jettySize=auto;html=1;" edge="1" parent="1" source="BAq6Ku5tGrZ1LdkmCnmw-12" target="BAq6Ku5tGrZ1LdkmCnmw-14">
          <mxGeometry relative="1" as="geometry" />
        </mxCell>
        <mxCell id="BAq6Ku5tGrZ1LdkmCnmw-17" value="" style="edgeStyle=orthogonalEdgeStyle;rounded=0;orthogonalLoop=1;jettySize=auto;html=1;exitX=0;exitY=0.5;exitDx=0;exitDy=0;" edge="1" parent="1" source="BAq6Ku5tGrZ1LdkmCnmw-12" target="BAq6Ku5tGrZ1LdkmCnmw-16">
          <mxGeometry relative="1" as="geometry">
            <Array as="points">
              <mxPoint x="120" y="620" />
              <mxPoint x="120" y="760" />
            </Array>
          </mxGeometry>
        </mxCell>
        <mxCell id="BAq6Ku5tGrZ1LdkmCnmw-12" value="Lymphatic endothelial cells demonstrated 2 lineages" style="whiteSpace=wrap;html=1;fillColor=#0050ef;strokeColor=#001DBC;fontColor=#ffffff;fontSize=14;" vertex="1" parent="1">
          <mxGeometry x="170" y="590" width="150" height="60" as="geometry" />
        </mxCell>
        <mxCell id="BAq6Ku5tGrZ1LdkmCnmw-14" value="lymphangiogenesis" style="shape=hexagon;perimeter=hexagonPerimeter2;whiteSpace=wrap;html=1;fixedSize=1;fillColor=#0050ef;strokeColor=#001DBC;fontColor=#ffffff;" vertex="1" parent="1">
          <mxGeometry x="-30" y="580" width="120" height="80" as="geometry" />
        </mxCell>
        <mxCell id="BAq6Ku5tGrZ1LdkmCnmw-16" value="antigen presentation" style="shape=hexagon;perimeter=hexagonPerimeter2;whiteSpace=wrap;html=1;fixedSize=1;fillColor=#0050ef;strokeColor=#001DBC;fontColor=#ffffff;" vertex="1" parent="1">
          <mxGeometry x="-30" y="720" width="120" height="80" as="geometry" />
        </mxCell>
        <mxCell id="BAq6Ku5tGrZ1LdkmCnmw-28" value="" style="edgeStyle=orthogonalEdgeStyle;rounded=0;orthogonalLoop=1;jettySize=auto;html=1;" edge="1" parent="1" source="BAq6Ku5tGrZ1LdkmCnmw-18" target="BAq6Ku5tGrZ1LdkmCnmw-27">
          <mxGeometry relative="1" as="geometry" />
        </mxCell>
        <mxCell id="BAq6Ku5tGrZ1LdkmCnmw-18" value="intercellular communication analysis" style="rounded=0;whiteSpace=wrap;html=1;fillColor=#a20025;fontColor=#ffffff;strokeColor=#6F0000;fontSize=14;" vertex="1" parent="1">
          <mxGeometry x="570" y="510" width="110" height="60" as="geometry" />
        </mxCell>
        <mxCell id="BAq6Ku5tGrZ1LdkmCnmw-24" value="" style="edgeStyle=orthogonalEdgeStyle;rounded=0;orthogonalLoop=1;jettySize=auto;html=1;" edge="1" parent="1" source="BAq6Ku5tGrZ1LdkmCnmw-21" target="BAq6Ku5tGrZ1LdkmCnmw-23">
          <mxGeometry relative="1" as="geometry" />
        </mxCell>
        <mxCell id="BAq6Ku5tGrZ1LdkmCnmw-26" value="" style="edgeStyle=orthogonalEdgeStyle;rounded=0;orthogonalLoop=1;jettySize=auto;html=1;" edge="1" parent="1" source="BAq6Ku5tGrZ1LdkmCnmw-21" target="BAq6Ku5tGrZ1LdkmCnmw-25">
          <mxGeometry relative="1" as="geometry" />
        </mxCell>
        <mxCell id="BAq6Ku5tGrZ1LdkmCnmw-21" value="pericyctes" style="rounded=0;whiteSpace=wrap;html=1;fillColor=#60a917;fontColor=#ffffff;strokeColor=#2D7600;fontSize=14;" vertex="1" parent="1">
          <mxGeometry x="140" y="430" width="120" height="60" as="geometry" />
        </mxCell>
        <mxCell id="BAq6Ku5tGrZ1LdkmCnmw-23" value="endoplasmic reticulum stress" style="shape=process;whiteSpace=wrap;html=1;backgroundOutline=1;fillColor=#60a917;strokeColor=#2D7600;fontColor=#ffffff;rounded=0;" vertex="1" parent="1">
          <mxGeometry x="-20" y="300" width="120" height="60" as="geometry" />
        </mxCell>
        <mxCell id="BAq6Ku5tGrZ1LdkmCnmw-25" value="BASP1+ matrix-producing perictyes" style="shape=process;whiteSpace=wrap;html=1;backgroundOutline=1;fillColor=#60a917;strokeColor=#2D7600;fontColor=#ffffff;rounded=0;" vertex="1" parent="1">
          <mxGeometry x="140" y="310" width="120" height="60" as="geometry" />
        </mxCell>
        <mxCell id="BAq6Ku5tGrZ1LdkmCnmw-27" value="neovascular endothelial cells could shape an immunosuppressive microenvironment conducive to angiogenesis" style="shape=hexagon;perimeter=hexagonPerimeter2;whiteSpace=wrap;html=1;fixedSize=1;fillColor=#a20025;strokeColor=#6F0000;fontColor=#ffffff;rounded=0;" vertex="1" parent="1">
          <mxGeometry x="755" y="480" width="235" height="100" as="geometry" />
        </mxCell>
        <mxCell id="BAq6Ku5tGrZ1LdkmCnmw-32" value="" style="edgeStyle=orthogonalEdgeStyle;rounded=0;orthogonalLoop=1;jettySize=auto;html=1;exitX=0.5;exitY=1;exitDx=0;exitDy=0;" edge="1" parent="1" source="BAq6Ku5tGrZ1LdkmCnmw-29" target="BAq6Ku5tGrZ1LdkmCnmw-31">
          <mxGeometry relative="1" as="geometry" />
        </mxCell>
        <mxCell id="BAq6Ku5tGrZ1LdkmCnmw-34" value="" style="edgeStyle=orthogonalEdgeStyle;rounded=0;orthogonalLoop=1;jettySize=auto;html=1;" edge="1" parent="1" source="BAq6Ku5tGrZ1LdkmCnmw-29" target="BAq6Ku5tGrZ1LdkmCnmw-33">
          <mxGeometry relative="1" as="geometry" />
        </mxCell>
        <mxCell id="BAq6Ku5tGrZ1LdkmCnmw-36" value="" style="edgeStyle=orthogonalEdgeStyle;rounded=0;orthogonalLoop=1;jettySize=auto;html=1;" edge="1" parent="1" source="BAq6Ku5tGrZ1LdkmCnmw-29" target="BAq6Ku5tGrZ1LdkmCnmw-35">
          <mxGeometry relative="1" as="geometry" />
        </mxCell>
        <mxCell id="BAq6Ku5tGrZ1LdkmCnmw-39" style="edgeStyle=orthogonalEdgeStyle;rounded=0;orthogonalLoop=1;jettySize=auto;html=1;exitX=1;exitY=0.5;exitDx=0;exitDy=0;" edge="1" parent="1" source="BAq6Ku5tGrZ1LdkmCnmw-29" target="BAq6Ku5tGrZ1LdkmCnmw-37">
          <mxGeometry relative="1" as="geometry" />
        </mxCell>
        <mxCell id="BAq6Ku5tGrZ1LdkmCnmw-29" value="Vasculature cells" style="ellipse;whiteSpace=wrap;html=1;fillColor=#e3c800;fontColor=#000000;strokeColor=#B09500;" vertex="1" parent="1">
          <mxGeometry x="1020" y="870" width="70" height="50" as="geometry" />
        </mxCell>
        <mxCell id="BAq6Ku5tGrZ1LdkmCnmw-45" value="" style="edgeStyle=orthogonalEdgeStyle;rounded=0;orthogonalLoop=1;jettySize=auto;html=1;exitX=0.5;exitY=1;exitDx=0;exitDy=0;" edge="1" parent="1" source="BAq6Ku5tGrZ1LdkmCnmw-31" target="BAq6Ku5tGrZ1LdkmCnmw-44">
          <mxGeometry relative="1" as="geometry">
            <Array as="points">
              <mxPoint x="1111" y="1020" />
              <mxPoint x="1185" y="1020" />
            </Array>
          </mxGeometry>
        </mxCell>
        <mxCell id="BAq6Ku5tGrZ1LdkmCnmw-31" value="VECs" style="rounded=1;whiteSpace=wrap;html=1;fillColor=#a0522d;strokeColor=#6D1F00;fontColor=#ffffff;" vertex="1" parent="1">
          <mxGeometry x="1083" y="970" width="55" height="35" as="geometry" />
        </mxCell>
        <mxCell id="BAq6Ku5tGrZ1LdkmCnmw-53" value="" style="edgeStyle=orthogonalEdgeStyle;rounded=0;orthogonalLoop=1;jettySize=auto;html=1;" edge="1" parent="1" source="BAq6Ku5tGrZ1LdkmCnmw-33" target="BAq6Ku5tGrZ1LdkmCnmw-52">
          <mxGeometry relative="1" as="geometry" />
        </mxCell>
        <mxCell id="BAq6Ku5tGrZ1LdkmCnmw-33" value="MCs" style="rounded=1;whiteSpace=wrap;html=1;fillColor=#647687;strokeColor=#314354;fontColor=#ffffff;" vertex="1" parent="1">
          <mxGeometry x="979" y="970" width="51" height="35" as="geometry" />
        </mxCell>
        <mxCell id="BAq6Ku5tGrZ1LdkmCnmw-35" value="LEC" style="rounded=1;whiteSpace=wrap;html=1;fillColor=#6d8764;strokeColor=#3A5431;fontColor=#ffffff;" vertex="1" parent="1">
          <mxGeometry x="920" y="878" width="45" height="35" as="geometry" />
        </mxCell>
        <mxCell id="BAq6Ku5tGrZ1LdkmCnmw-41" value="" style="edgeStyle=orthogonalEdgeStyle;rounded=0;orthogonalLoop=1;jettySize=auto;html=1;" edge="1" parent="1" source="BAq6Ku5tGrZ1LdkmCnmw-37" target="BAq6Ku5tGrZ1LdkmCnmw-40">
          <mxGeometry relative="1" as="geometry" />
        </mxCell>
        <mxCell id="BAq6Ku5tGrZ1LdkmCnmw-37" value="Tissue-specific ECs" style="rounded=1;whiteSpace=wrap;html=1;fillColor=#76608a;fontColor=#ffffff;strokeColor=#432D57;" vertex="1" parent="1">
          <mxGeometry x="1134" y="878" width="70" height="35" as="geometry" />
        </mxCell>
        <mxCell id="BAq6Ku5tGrZ1LdkmCnmw-40" value="LSECs" style="ellipse;shape=cloud;whiteSpace=wrap;html=1;fillColor=#76608a;strokeColor=#432D57;fontColor=#ffffff;rounded=1;" vertex="1" parent="1">
          <mxGeometry x="1269" y="810" width="61" height="45.5" as="geometry" />
        </mxCell>
        <mxCell id="BAq6Ku5tGrZ1LdkmCnmw-42" value="RGCs" style="ellipse;shape=cloud;whiteSpace=wrap;html=1;fillColor=#76608a;strokeColor=#432D57;fontColor=#ffffff;rounded=1;" vertex="1" parent="1">
          <mxGeometry x="1269" y="930" width="61" height="45.5" as="geometry" />
        </mxCell>
        <mxCell id="BAq6Ku5tGrZ1LdkmCnmw-43" style="edgeStyle=orthogonalEdgeStyle;rounded=0;orthogonalLoop=1;jettySize=auto;html=1;exitX=1;exitY=0.5;exitDx=0;exitDy=0;entryX=0.4;entryY=0.1;entryDx=0;entryDy=0;entryPerimeter=0;" edge="1" parent="1" source="BAq6Ku5tGrZ1LdkmCnmw-37" target="BAq6Ku5tGrZ1LdkmCnmw-42">
          <mxGeometry relative="1" as="geometry" />
        </mxCell>
        <mxCell id="BAq6Ku5tGrZ1LdkmCnmw-44" value="Art&lt;span style=&quot;color: rgba(0, 0, 0, 0); font-family: monospace; font-size: 0px; text-align: start; text-wrap: nowrap;&quot;&gt;%3CmxGraphModel%3E%3Croot%3E%3CmxCell%20id%3D%220%22%2F%3E%3CmxCell%20id%3D%221%22%20parent%3D%220%22%2F%3E%3CmxCell%20id%3D%222%22%20value%3D%22CapECs%26lt%3Bspan%20style%3D%26quot%3Bcolor%3A%20rgba(0%2C%200%2C%200%2C%200)%3B%20font-family%3A%20monospace%3B%20font-size%3A%200px%3B%20text-align%3A%20start%3B%20text-wrap%3A%20nowrap%3B%26quot%3B%26gt%3B%253CmxGraphModel%253E%253Croot%253E%253CmxCell%2520id%253D%25220%2522%252F%253E%253CmxCell%2520id%253D%25221%2522%2520parent%253D%25220%2522%252F%253E%253CmxCell%2520id%253D%25222%2522%2520value%253D%2522RGCs%2522%2520style%253D%2522ellipse%253Bshape%253Dcloud%253BwhiteSpace%253Dwrap%253Bhtml%253D1%253BfillColor%253D%252376608a%253BstrokeColor%253D%2523432D57%253BfontColor%253D%2523ffffff%253Brounded%253D1%253B%2522%2520vertex%253D%25221%2522%2520parent%253D%25221%2522%253E%253CmxGeometry%2520x%253D%25221259%2522%2520y%253D%2522890%2522%2520width%253D%252261%2522%2520height%253D%252245.5%2522%2520as%253D%2522geometry%2522%252F%253E%253C%252FmxCell%253E%253C%252Froot%253E%253C%252FmxGraphModel%253E%26lt%3B%2Fspan%26gt%3B%22%20style%3D%22ellipse%3Bshape%3Dcloud%3BwhiteSpace%3Dwrap%3Bhtml%3D1%3BfillColor%3D%23a0522d%3BstrokeColor%3D%236D1F00%3BfontColor%3D%23ffffff%3Brounded%3D1%3B%22%20vertex%3D%221%22%20parent%3D%221%22%3E%3CmxGeometry%20x%3D%221050.5%22%20y%3D%221062.5%22%20width%3D%2269.5%22%20height%3D%2237.5%22%20as%3D%22geometry%22%2F%3E%3C%2FmxCell%3E%3C%2Froot%3E%3C%2FmxGraphModel%3E&lt;/span&gt;ECs&lt;span style=&quot;color: rgba(0, 0, 0, 0); font-family: monospace; font-size: 0px; text-align: start; text-wrap: nowrap;&quot;&gt;%3CmxGraphModel%3E%3Croot%3E%3CmxCell%20id%3D%220%22%2F%3E%3CmxCell%20id%3D%221%22%20parent%3D%220%22%2F%3E%3CmxCell%20id%3D%222%22%20value%3D%22RGCs%22%20style%3D%22ellipse%3Bshape%3Dcloud%3BwhiteSpace%3Dwrap%3Bhtml%3D1%3BfillColor%3D%2376608a%3BstrokeColor%3D%23432D57%3BfontColor%3D%23ffffff%3Brounded%3D1%3B%22%20vertex%3D%221%22%20parent%3D%221%22%3E%3CmxGeometry%20x%3D%221259%22%20y%3D%22890%22%20width%3D%2261%22%20height%3D%2245.5%22%20as%3D%22geometry%22%2F%3E%3C%2FmxCell%3E%3C%2Froot%3E%3C%2FmxGraphModel%3E&lt;/span&gt;" style="ellipse;shape=cloud;whiteSpace=wrap;html=1;fillColor=#a0522d;strokeColor=#6D1F00;fontColor=#ffffff;rounded=1;" vertex="1" parent="1">
          <mxGeometry x="1150" y="1050" width="69.5" height="37.5" as="geometry" />
        </mxCell>
        <mxCell id="BAq6Ku5tGrZ1LdkmCnmw-46" value="CapECs&lt;span style=&quot;color: rgba(0, 0, 0, 0); font-family: monospace; font-size: 0px; text-align: start; text-wrap: nowrap;&quot;&gt;%3CmxGraphModel%3E%3Croot%3E%3CmxCell%20id%3D%220%22%2F%3E%3CmxCell%20id%3D%221%22%20parent%3D%220%22%2F%3E%3CmxCell%20id%3D%222%22%20value%3D%22RGCs%22%20style%3D%22ellipse%3Bshape%3Dcloud%3BwhiteSpace%3Dwrap%3Bhtml%3D1%3BfillColor%3D%2376608a%3BstrokeColor%3D%23432D57%3BfontColor%3D%23ffffff%3Brounded%3D1%3B%22%20vertex%3D%221%22%20parent%3D%221%22%3E%3CmxGeometry%20x%3D%221259%22%20y%3D%22890%22%20width%3D%2261%22%20height%3D%2245.5%22%20as%3D%22geometry%22%2F%3E%3C%2FmxCell%3E%3C%2Froot%3E%3C%2FmxGraphModel%3E&lt;/span&gt;" style="ellipse;shape=cloud;whiteSpace=wrap;html=1;fillColor=#a0522d;strokeColor=#6D1F00;fontColor=#ffffff;rounded=1;" vertex="1" parent="1">
          <mxGeometry x="1090" y="1072.5" width="69.5" height="37.5" as="geometry" />
        </mxCell>
        <mxCell id="BAq6Ku5tGrZ1LdkmCnmw-47" value="VenECs&lt;span style=&quot;color: rgba(0, 0, 0, 0); font-family: monospace; font-size: 0px; text-align: start; text-wrap: nowrap;&quot;&gt;%3CmxGraphModel%3E%3Croot%3E%3CmxCell%20id%3D%220%22%2F%3E%3CmxCell%20id%3D%221%22%20parent%3D%220%22%2F%3E%3CmxCell%20id%3D%222%22%20value%3D%22RGCs%22%20style%3D%22ellipse%3Bshape%3Dcloud%3BwhiteSpace%3Dwrap%3Bhtml%3D1%3BfillColor%3D%2376608a%3BstrokeColor%3D%23432D57%3BfontColor%3D%23ffffff%3Brounded%3D1%3B%22%20vertex%3D%221%22%20parent%3D%221%22%3E%3CmxGeometry%20x%3D%221259%22%20y%3D%22890%22%20width%3D%2261%22%20height%3D%2245.5%22%20as%3D%22geometry%22%2F%3E%3C%2FmxCell%3E%3C%2Froot%3E%3C%2FmxGraphModel%3E&lt;/span&gt;" style="ellipse;shape=cloud;whiteSpace=wrap;html=1;fillColor=#a0522d;strokeColor=#6D1F00;fontColor=#ffffff;rounded=1;" vertex="1" parent="1">
          <mxGeometry x="1290" y="1080" width="69.5" height="37.5" as="geometry" />
        </mxCell>
        <mxCell id="BAq6Ku5tGrZ1LdkmCnmw-48" value="endoMT-II" style="ellipse;shape=cloud;whiteSpace=wrap;html=1;fillColor=#a0522d;strokeColor=#6D1F00;fontColor=#ffffff;rounded=1;" vertex="1" parent="1">
          <mxGeometry x="1206" y="1072.5" width="69.5" height="37.5" as="geometry" />
        </mxCell>
        <mxCell id="BAq6Ku5tGrZ1LdkmCnmw-49" style="edgeStyle=orthogonalEdgeStyle;rounded=0;orthogonalLoop=1;jettySize=auto;html=1;exitX=0.5;exitY=1;exitDx=0;exitDy=0;entryX=0.625;entryY=0.2;entryDx=0;entryDy=0;entryPerimeter=0;" edge="1" parent="1" source="BAq6Ku5tGrZ1LdkmCnmw-31" target="BAq6Ku5tGrZ1LdkmCnmw-48">
          <mxGeometry relative="1" as="geometry">
            <Array as="points">
              <mxPoint x="1111" y="1020" />
              <mxPoint x="1249" y="1020" />
            </Array>
          </mxGeometry>
        </mxCell>
        <mxCell id="BAq6Ku5tGrZ1LdkmCnmw-50" style="edgeStyle=orthogonalEdgeStyle;rounded=0;orthogonalLoop=1;jettySize=auto;html=1;exitX=0.5;exitY=1;exitDx=0;exitDy=0;entryX=0.4;entryY=0.1;entryDx=0;entryDy=0;entryPerimeter=0;" edge="1" parent="1" source="BAq6Ku5tGrZ1LdkmCnmw-31" target="BAq6Ku5tGrZ1LdkmCnmw-46">
          <mxGeometry relative="1" as="geometry" />
        </mxCell>
        <mxCell id="BAq6Ku5tGrZ1LdkmCnmw-51" style="edgeStyle=orthogonalEdgeStyle;rounded=0;orthogonalLoop=1;jettySize=auto;html=1;exitX=0.5;exitY=1;exitDx=0;exitDy=0;entryX=0.625;entryY=0.2;entryDx=0;entryDy=0;entryPerimeter=0;" edge="1" parent="1" source="BAq6Ku5tGrZ1LdkmCnmw-31" target="BAq6Ku5tGrZ1LdkmCnmw-47">
          <mxGeometry relative="1" as="geometry">
            <Array as="points">
              <mxPoint x="1111" y="1020" />
              <mxPoint x="1333" y="1020" />
            </Array>
          </mxGeometry>
        </mxCell>
        <mxCell id="BAq6Ku5tGrZ1LdkmCnmw-52" value="PCs" style="ellipse;shape=cloud;whiteSpace=wrap;html=1;fillColor=#647687;strokeColor=#314354;fontColor=#ffffff;rounded=1;" vertex="1" parent="1">
          <mxGeometry x="1010" y="1062.5" width="54.5" height="47.5" as="geometry" />
        </mxCell>
        <mxCell id="BAq6Ku5tGrZ1LdkmCnmw-54" value="SMCs" style="ellipse;shape=cloud;whiteSpace=wrap;html=1;fillColor=#647687;strokeColor=#314354;fontColor=#ffffff;rounded=1;" vertex="1" parent="1">
          <mxGeometry x="935.5" y="1045" width="54.5" height="47.5" as="geometry" />
        </mxCell>
        <mxCell id="BAq6Ku5tGrZ1LdkmCnmw-55" style="edgeStyle=orthogonalEdgeStyle;rounded=0;orthogonalLoop=1;jettySize=auto;html=1;exitX=0.5;exitY=1;exitDx=0;exitDy=0;entryX=0.625;entryY=0.2;entryDx=0;entryDy=0;entryPerimeter=0;" edge="1" parent="1" source="BAq6Ku5tGrZ1LdkmCnmw-33" target="BAq6Ku5tGrZ1LdkmCnmw-54">
          <mxGeometry relative="1" as="geometry" />
        </mxCell>
        <mxCell id="BAq6Ku5tGrZ1LdkmCnmw-60" value="tumour tissues were infiltrated with more CapECs" style="shape=parallelogram;perimeter=parallelogramPerimeter;whiteSpace=wrap;html=1;fixedSize=1;fontSize=12;fillColor=#d5e8d4;strokeColor=#82b366;" vertex="1" parent="1">
          <mxGeometry x="720" y="915.5" width="170" height="60" as="geometry" />
        </mxCell>
        <mxCell id="BAq6Ku5tGrZ1LdkmCnmw-62" value="differentiation trajectory from VenECs to ArtECs passing through CapECs" style="shape=parallelogram;perimeter=parallelogramPerimeter;whiteSpace=wrap;html=1;fixedSize=1;fontSize=12;fillColor=#d5e8d4;strokeColor=#82b366;" vertex="1" parent="1">
          <mxGeometry x="500" y="915.5" width="170" height="60" as="geometry" />
        </mxCell>
        <mxCell id="BAq6Ku5tGrZ1LdkmCnmw-64" value="CapECs defferentiation (通过cytoTRACE计算分化程度)" style="shape=parallelogram;perimeter=parallelogramPerimeter;whiteSpace=wrap;html=1;fixedSize=1;fontSize=12;fillColor=#fa6800;strokeColor=#C73500;fontColor=#000000;" vertex="1" parent="1">
          <mxGeometry x="605" y="1001.5" width="170" height="60" as="geometry" />
        </mxCell>
      </root>
    </mxGraphModel>
  </diagram>
</mxfile>
